<mxfile host="app.diagrams.net" modified="2021-10-09T18:27:38.683Z" agent="5.0 (Macintosh; Intel Mac OS X 10_15_7) AppleWebKit/605.1.15 (KHTML, like Gecko) Version/15.0 Safari/605.1.15" etag="Um7SLkICk28_TSX82nP3" version="15.4.3" type="github">
  <diagram id="tReHv3u6Pd42_ITOU3Pc" name="Page-1">
    <mxGraphModel dx="1913" dy="1087" grid="1" gridSize="10" guides="1" tooltips="1" connect="1" arrows="1" fold="1" page="0" pageScale="1" pageWidth="827" pageHeight="1169" math="0" shadow="0">
      <root>
        <mxCell id="0" />
        <mxCell id="1" parent="0" />
        <mxCell id="5rMPybmwtRSb6ZqjiMPX-2" value="&lt;font style=&quot;font-size: 18px&quot;&gt;CLI&lt;/font&gt;" style="rounded=1;whiteSpace=wrap;html=1;" parent="1" vertex="1">
          <mxGeometry x="190" y="-90" width="120" height="60" as="geometry" />
        </mxCell>
        <mxCell id="5rMPybmwtRSb6ZqjiMPX-3" value="UI" style="rounded=1;whiteSpace=wrap;html=1;fontSize=18;" parent="1" vertex="1">
          <mxGeometry x="180" y="240" width="120" height="60" as="geometry" />
        </mxCell>
        <mxCell id="5rMPybmwtRSb6ZqjiMPX-5" value="" style="curved=1;endArrow=classic;html=1;rounded=0;fontSize=18;edgeStyle=entityRelationEdgeStyle;exitX=1;exitY=0.5;exitDx=0;exitDy=0;" parent="1" source="5rMPybmwtRSb6ZqjiMPX-3" edge="1">
          <mxGeometry width="50" height="50" relative="1" as="geometry">
            <mxPoint x="320" y="270" as="sourcePoint" />
            <mxPoint x="460" y="210" as="targetPoint" />
            <Array as="points">
              <mxPoint x="440" y="200" />
              <mxPoint x="390" y="150" />
            </Array>
          </mxGeometry>
        </mxCell>
        <mxCell id="5rMPybmwtRSb6ZqjiMPX-6" value="" style="curved=1;endArrow=classic;html=1;rounded=0;fontSize=18;edgeStyle=entityRelationEdgeStyle;exitX=1;exitY=0.5;exitDx=0;exitDy=0;entryX=0.25;entryY=0;entryDx=0;entryDy=0;" parent="1" source="5rMPybmwtRSb6ZqjiMPX-2" target="5rMPybmwtRSb6ZqjiMPX-18" edge="1">
          <mxGeometry width="50" height="50" relative="1" as="geometry">
            <mxPoint x="390" y="200" as="sourcePoint" />
            <mxPoint x="460" y="210" as="targetPoint" />
            <Array as="points">
              <mxPoint x="440" y="200" />
              <mxPoint x="390" y="150" />
            </Array>
          </mxGeometry>
        </mxCell>
        <mxCell id="5rMPybmwtRSb6ZqjiMPX-7" value="" style="sketch=0;html=1;dashed=0;whitespace=wrap;fillColor=#2875E2;strokeColor=#ffffff;points=[[0.005,0.63,0],[0.1,0.2,0],[0.9,0.2,0],[0.5,0,0],[0.995,0.63,0],[0.72,0.99,0],[0.5,1,0],[0.28,0.99,0]];shape=mxgraph.kubernetes.icon;prIcon=api;fontSize=18;" parent="1" vertex="1">
          <mxGeometry x="440" y="162" width="120" height="78" as="geometry" />
        </mxCell>
        <mxCell id="5rMPybmwtRSb6ZqjiMPX-8" value="Я тригерю&amp;nbsp;&lt;br&gt;лямбды" style="shape=callout;whiteSpace=wrap;html=1;perimeter=calloutPerimeter;fontSize=18;" parent="1" vertex="1">
          <mxGeometry x="440" y="80" width="120" height="80" as="geometry" />
        </mxCell>
        <mxCell id="5rMPybmwtRSb6ZqjiMPX-11" value="" style="outlineConnect=0;dashed=0;verticalLabelPosition=bottom;verticalAlign=top;align=center;html=1;shape=mxgraph.aws3.android;fillColor=#EE472A;gradientColor=none;fontSize=18;" parent="1" vertex="1">
          <mxGeometry x="180" y="208" width="26.75" height="30" as="geometry" />
        </mxCell>
        <mxCell id="5rMPybmwtRSb6ZqjiMPX-12" value="JS SDK" style="text;html=1;align=center;verticalAlign=middle;resizable=0;points=[];autosize=1;strokeColor=none;fillColor=none;fontSize=18;" parent="1" vertex="1">
          <mxGeometry x="210" y="208" width="80" height="30" as="geometry" />
        </mxCell>
        <mxCell id="5rMPybmwtRSb6ZqjiMPX-14" value="" style="outlineConnect=0;dashed=0;verticalLabelPosition=bottom;verticalAlign=top;align=center;html=1;shape=mxgraph.aws3.lambda_function;fillColor=#5294CF;gradientColor=none;fontSize=18;" parent="1" vertex="1">
          <mxGeometry x="610" y="70" width="60" height="63" as="geometry" />
        </mxCell>
        <mxCell id="5rMPybmwtRSb6ZqjiMPX-15" value="" style="curved=1;endArrow=classic;html=1;rounded=0;fontSize=18;edgeStyle=entityRelationEdgeStyle;exitX=0.833;exitY=0.628;exitDx=0;exitDy=0;exitPerimeter=0;entryX=0;entryY=0.5;entryDx=0;entryDy=0;entryPerimeter=0;" parent="1" source="5rMPybmwtRSb6ZqjiMPX-7" target="5rMPybmwtRSb6ZqjiMPX-14" edge="1">
          <mxGeometry width="50" height="50" relative="1" as="geometry">
            <mxPoint x="390" y="200" as="sourcePoint" />
            <mxPoint x="440" y="150" as="targetPoint" />
            <Array as="points">
              <mxPoint x="440" y="200" />
              <mxPoint x="390" y="150" />
            </Array>
          </mxGeometry>
        </mxCell>
        <mxCell id="5rMPybmwtRSb6ZqjiMPX-16" value="request" style="text;html=1;align=center;verticalAlign=middle;resizable=0;points=[];autosize=1;strokeColor=none;fillColor=none;fontSize=18;" parent="1" vertex="1">
          <mxGeometry x="330" y="255" width="80" height="30" as="geometry" />
        </mxCell>
        <mxCell id="5rMPybmwtRSb6ZqjiMPX-17" value="request" style="text;html=1;align=center;verticalAlign=middle;resizable=0;points=[];autosize=1;strokeColor=none;fillColor=none;fontSize=18;" parent="1" vertex="1">
          <mxGeometry x="360" y="-90" width="80" height="30" as="geometry" />
        </mxCell>
        <mxCell id="5rMPybmwtRSb6ZqjiMPX-18" value="" style="aspect=fixed;perimeter=ellipsePerimeter;html=1;align=center;shadow=0;dashed=0;spacingTop=3;image;image=img/lib/active_directory/generic_server.svg;fontSize=18;" parent="1" vertex="1">
          <mxGeometry x="779.8" y="50" width="50.4" height="90" as="geometry" />
        </mxCell>
        <mxCell id="5rMPybmwtRSb6ZqjiMPX-19" value="" style="curved=1;endArrow=classic;html=1;rounded=0;fontSize=18;edgeStyle=entityRelationEdgeStyle;entryX=0;entryY=0.5;entryDx=0;entryDy=0;" parent="1" source="5rMPybmwtRSb6ZqjiMPX-14" target="5rMPybmwtRSb6ZqjiMPX-18" edge="1">
          <mxGeometry width="50" height="50" relative="1" as="geometry">
            <mxPoint x="510" y="200" as="sourcePoint" />
            <mxPoint x="560" y="150" as="targetPoint" />
            <Array as="points">
              <mxPoint x="560" y="200" />
              <mxPoint x="510" y="150" />
            </Array>
          </mxGeometry>
        </mxCell>
        <mxCell id="5rMPybmwtRSb6ZqjiMPX-20" value="maestro&amp;nbsp;&lt;br&gt;SDK" style="text;html=1;align=center;verticalAlign=middle;resizable=0;points=[];autosize=1;strokeColor=none;fillColor=none;fontSize=18;" parent="1" vertex="1">
          <mxGeometry x="680" y="50" width="90" height="50" as="geometry" />
        </mxCell>
        <mxCell id="5rMPybmwtRSb6ZqjiMPX-21" value="Я разбираюсь там где лямбда не может&amp;nbsp;" style="shape=callout;whiteSpace=wrap;html=1;perimeter=calloutPerimeter;fontSize=18;" parent="1" vertex="1">
          <mxGeometry x="710" y="-60" width="197.8" height="110" as="geometry" />
        </mxCell>
        <mxCell id="5rMPybmwtRSb6ZqjiMPX-22" value="Java server" style="text;html=1;align=center;verticalAlign=middle;resizable=0;points=[];autosize=1;strokeColor=none;fillColor=none;fontSize=18;" parent="1" vertex="1">
          <mxGeometry x="750" y="130" width="110" height="30" as="geometry" />
        </mxCell>
        <mxCell id="5rMPybmwtRSb6ZqjiMPX-23" value="" style="aspect=fixed;perimeter=ellipsePerimeter;html=1;align=center;shadow=0;dashed=0;spacingTop=3;image;image=img/lib/active_directory/internet_cloud.svg;fontSize=18;" parent="1" vertex="1">
          <mxGeometry x="640.47" y="230" width="169.05" height="106.5" as="geometry" />
        </mxCell>
        <mxCell id="5rMPybmwtRSb6ZqjiMPX-24" value="aws, azure&amp;nbsp;" style="text;html=1;align=center;verticalAlign=middle;resizable=0;points=[];autosize=1;strokeColor=none;fillColor=none;fontSize=18;" parent="1" vertex="1">
          <mxGeometry x="667" y="250" width="110" height="30" as="geometry" />
        </mxCell>
        <mxCell id="5rMPybmwtRSb6ZqjiMPX-25" value="google&amp;nbsp;&lt;br&gt;" style="text;html=1;align=center;verticalAlign=middle;resizable=0;points=[];autosize=1;strokeColor=none;fillColor=none;fontSize=18;" parent="1" vertex="1">
          <mxGeometry x="680" y="268.25" width="70" height="30" as="geometry" />
        </mxCell>
        <mxCell id="5rMPybmwtRSb6ZqjiMPX-26" value="open stack" style="text;html=1;align=center;verticalAlign=middle;resizable=0;points=[];autosize=1;strokeColor=none;fillColor=none;fontSize=18;" parent="1" vertex="1">
          <mxGeometry x="660" y="285" width="100" height="30" as="geometry" />
        </mxCell>
        <mxCell id="5rMPybmwtRSb6ZqjiMPX-27" value="" style="curved=1;endArrow=classic;html=1;rounded=0;fontSize=18;edgeStyle=entityRelationEdgeStyle;entryX=0;entryY=0.5;entryDx=0;entryDy=0;" parent="1" target="5rMPybmwtRSb6ZqjiMPX-23" edge="1">
          <mxGeometry width="50" height="50" relative="1" as="geometry">
            <mxPoint x="640" y="133" as="sourcePoint" />
            <mxPoint x="540" y="150" as="targetPoint" />
            <Array as="points">
              <mxPoint x="540" y="200" />
              <mxPoint x="490" y="150" />
            </Array>
          </mxGeometry>
        </mxCell>
        <mxCell id="5rMPybmwtRSb6ZqjiMPX-28" value="" style="curved=1;endArrow=classic;html=1;rounded=0;fontSize=18;edgeStyle=entityRelationEdgeStyle;entryX=1;entryY=0.5;entryDx=0;entryDy=0;" parent="1" target="5rMPybmwtRSb6ZqjiMPX-23" edge="1">
          <mxGeometry width="50" height="50" relative="1" as="geometry">
            <mxPoint x="830" y="95" as="sourcePoint" />
            <mxPoint x="540" y="150" as="targetPoint" />
            <Array as="points">
              <mxPoint x="540" y="200" />
              <mxPoint x="490" y="150" />
            </Array>
          </mxGeometry>
        </mxCell>
        <mxCell id="5rMPybmwtRSb6ZqjiMPX-30" value="CLI Request&amp;nbsp;" style="text;html=1;align=center;verticalAlign=middle;resizable=0;points=[];autosize=1;strokeColor=none;fillColor=none;fontSize=18;" parent="1" vertex="1">
          <mxGeometry x="-360" y="480" width="120" height="30" as="geometry" />
        </mxCell>
        <mxCell id="5rMPybmwtRSb6ZqjiMPX-31" value="что-то пишем в CLI&amp;nbsp;" style="text;html=1;align=center;verticalAlign=middle;resizable=0;points=[];autosize=1;strokeColor=none;fillColor=none;fontSize=18;" parent="1" vertex="1">
          <mxGeometry x="-650" y="615" width="180" height="30" as="geometry" />
        </mxCell>
        <mxCell id="5rMPybmwtRSb6ZqjiMPX-32" value="" style="curved=1;endArrow=classic;html=1;rounded=0;fontSize=18;edgeStyle=entityRelationEdgeStyle;exitX=1.017;exitY=0.5;exitDx=0;exitDy=0;exitPerimeter=0;" parent="1" source="5rMPybmwtRSb6ZqjiMPX-31" edge="1">
          <mxGeometry width="50" height="50" relative="1" as="geometry">
            <mxPoint x="-280" y="620" as="sourcePoint" />
            <mxPoint x="-390" y="630" as="targetPoint" />
            <Array as="points">
              <mxPoint x="-230" y="620" />
              <mxPoint x="-280" y="570" />
            </Array>
          </mxGeometry>
        </mxCell>
        <mxCell id="5rMPybmwtRSb6ZqjiMPX-34" value="сверяет с json" style="text;html=1;align=center;verticalAlign=middle;resizable=0;points=[];autosize=1;strokeColor=none;fillColor=none;fontSize=18;" parent="1" vertex="1">
          <mxGeometry x="-380" y="615" width="140" height="30" as="geometry" />
        </mxCell>
        <mxCell id="5rMPybmwtRSb6ZqjiMPX-37" value="" style="endArrow=classic;html=1;rounded=0;fontSize=18;" parent="1" edge="1">
          <mxGeometry width="50" height="50" relative="1" as="geometry">
            <mxPoint x="-350" y="605" as="sourcePoint" />
            <mxPoint x="-500" y="605" as="targetPoint" />
          </mxGeometry>
        </mxCell>
        <mxCell id="5rMPybmwtRSb6ZqjiMPX-38" value="error если где-то тупанул" style="text;html=1;align=center;verticalAlign=middle;resizable=0;points=[];autosize=1;strokeColor=none;fillColor=none;fontSize=18;" parent="1" vertex="1">
          <mxGeometry x="-550" y="560" width="230" height="30" as="geometry" />
        </mxCell>
        <mxCell id="5rMPybmwtRSb6ZqjiMPX-40" value="" style="curved=1;endArrow=classic;html=1;rounded=0;fontSize=18;" parent="1" edge="1">
          <mxGeometry width="50" height="50" relative="1" as="geometry">
            <mxPoint x="-240" y="630" as="sourcePoint" />
            <mxPoint x="-200" y="630" as="targetPoint" />
            <Array as="points">
              <mxPoint x="-200" y="630" />
            </Array>
          </mxGeometry>
        </mxCell>
        <mxCell id="5rMPybmwtRSb6ZqjiMPX-41" value="integration request" style="text;html=1;align=center;verticalAlign=middle;resizable=0;points=[];autosize=1;strokeColor=none;fillColor=none;fontSize=18;" parent="1" vertex="1">
          <mxGeometry x="-180" y="615" width="160" height="30" as="geometry" />
        </mxCell>
        <mxCell id="5rMPybmwtRSb6ZqjiMPX-42" value="" style="curved=1;endArrow=classic;html=1;rounded=0;fontSize=18;" parent="1" edge="1">
          <mxGeometry width="50" height="50" relative="1" as="geometry">
            <mxPoint x="-10" y="630" as="sourcePoint" />
            <mxPoint x="40" y="580" as="targetPoint" />
            <Array as="points">
              <mxPoint x="40" y="630" />
              <mxPoint x="-10" y="580" />
            </Array>
          </mxGeometry>
        </mxCell>
        <mxCell id="5rMPybmwtRSb6ZqjiMPX-43" value="true" style="text;html=1;align=center;verticalAlign=middle;resizable=0;points=[];autosize=1;strokeColor=none;fillColor=none;fontSize=18;" parent="1" vertex="1">
          <mxGeometry x="-50" y="560" width="50" height="30" as="geometry" />
        </mxCell>
        <mxCell id="5rMPybmwtRSb6ZqjiMPX-44" value="plugin" style="whiteSpace=wrap;html=1;fontSize=18;" parent="1" vertex="1">
          <mxGeometry x="50" y="545" width="120" height="60" as="geometry" />
        </mxCell>
        <mxCell id="5rMPybmwtRSb6ZqjiMPX-45" value="" style="curved=1;endArrow=classic;html=1;rounded=0;fontSize=18;" parent="1" edge="1">
          <mxGeometry width="50" height="50" relative="1" as="geometry">
            <mxPoint x="-10" y="640" as="sourcePoint" />
            <mxPoint x="190" y="640" as="targetPoint" />
            <Array as="points">
              <mxPoint x="30" y="640" />
              <mxPoint x="120" y="640" />
            </Array>
          </mxGeometry>
        </mxCell>
        <mxCell id="5rMPybmwtRSb6ZqjiMPX-46" value="что-то меняю или делаю" style="shape=callout;whiteSpace=wrap;html=1;perimeter=calloutPerimeter;fontSize=18;" parent="1" vertex="1">
          <mxGeometry x="20" y="465" width="120" height="80" as="geometry" />
        </mxCell>
        <mxCell id="5rMPybmwtRSb6ZqjiMPX-47" value="" style="curved=1;endArrow=classic;html=1;rounded=0;fontSize=18;exitX=1;exitY=0.5;exitDx=0;exitDy=0;" parent="1" source="5rMPybmwtRSb6ZqjiMPX-44" edge="1">
          <mxGeometry width="50" height="50" relative="1" as="geometry">
            <mxPoint x="-70" y="720" as="sourcePoint" />
            <mxPoint x="190" y="640" as="targetPoint" />
            <Array as="points" />
          </mxGeometry>
        </mxCell>
        <mxCell id="5rMPybmwtRSb6ZqjiMPX-48" value="server" style="rounded=0;whiteSpace=wrap;html=1;fontSize=18;" parent="1" vertex="1">
          <mxGeometry x="200" y="615" width="120" height="60" as="geometry" />
        </mxCell>
        <mxCell id="5rMPybmwtRSb6ZqjiMPX-49" value="" style="curved=1;endArrow=classic;html=1;rounded=0;fontSize=18;" parent="1" edge="1">
          <mxGeometry width="50" height="50" relative="1" as="geometry">
            <mxPoint x="180" y="670" as="sourcePoint" />
            <mxPoint x="-10" y="670" as="targetPoint" />
            <Array as="points" />
          </mxGeometry>
        </mxCell>
        <mxCell id="5rMPybmwtRSb6ZqjiMPX-50" value="integration response" style="text;html=1;align=center;verticalAlign=middle;resizable=0;points=[];autosize=1;strokeColor=none;fillColor=none;fontSize=18;" parent="1" vertex="1">
          <mxGeometry x="-190" y="650" width="180" height="30" as="geometry" />
        </mxCell>
        <mxCell id="5rMPybmwtRSb6ZqjiMPX-51" value="false" style="text;html=1;align=center;verticalAlign=middle;resizable=0;points=[];autosize=1;strokeColor=none;fillColor=none;fontSize=18;" parent="1" vertex="1">
          <mxGeometry x="-325" y="650" width="50" height="30" as="geometry" />
        </mxCell>
        <mxCell id="5rMPybmwtRSb6ZqjiMPX-52" value="" style="curved=1;endArrow=classic;html=1;rounded=0;fontSize=18;exitX=-0.006;exitY=0.467;exitDx=0;exitDy=0;exitPerimeter=0;entryX=1.06;entryY=0.467;entryDx=0;entryDy=0;entryPerimeter=0;" parent="1" source="5rMPybmwtRSb6ZqjiMPX-50" target="5rMPybmwtRSb6ZqjiMPX-51" edge="1">
          <mxGeometry width="50" height="50" relative="1" as="geometry">
            <mxPoint x="190" y="680" as="sourcePoint" />
            <mxPoint y="680" as="targetPoint" />
            <Array as="points" />
          </mxGeometry>
        </mxCell>
        <mxCell id="5rMPybmwtRSb6ZqjiMPX-54" value="" style="curved=1;endArrow=classic;html=1;rounded=0;fontSize=18;exitX=-0.08;exitY=0.467;exitDx=0;exitDy=0;exitPerimeter=0;" parent="1" source="5rMPybmwtRSb6ZqjiMPX-51" edge="1">
          <mxGeometry width="50" height="50" relative="1" as="geometry">
            <mxPoint x="-181.07999999999993" y="674.01" as="sourcePoint" />
            <mxPoint x="-530" y="664" as="targetPoint" />
            <Array as="points" />
          </mxGeometry>
        </mxCell>
        <mxCell id="5rMPybmwtRSb6ZqjiMPX-55" value="вернул как есть" style="text;html=1;align=center;verticalAlign=middle;resizable=0;points=[];autosize=1;strokeColor=none;fillColor=none;fontSize=18;" parent="1" vertex="1">
          <mxGeometry x="-495" y="670" width="150" height="30" as="geometry" />
        </mxCell>
        <mxCell id="5rMPybmwtRSb6ZqjiMPX-56" value="" style="curved=1;endArrow=classic;html=1;rounded=0;fontSize=18;exitX=0.422;exitY=1.033;exitDx=0;exitDy=0;exitPerimeter=0;" parent="1" source="5rMPybmwtRSb6ZqjiMPX-50" edge="1">
          <mxGeometry width="50" height="50" relative="1" as="geometry">
            <mxPoint x="-250" y="710" as="sourcePoint" />
            <mxPoint x="-200" y="750" as="targetPoint" />
            <Array as="points" />
          </mxGeometry>
        </mxCell>
        <mxCell id="5rMPybmwtRSb6ZqjiMPX-58" value="true" style="text;html=1;align=center;verticalAlign=middle;resizable=0;points=[];autosize=1;strokeColor=none;fillColor=none;fontSize=18;" parent="1" vertex="1">
          <mxGeometry x="-160" y="710" width="50" height="30" as="geometry" />
        </mxCell>
        <mxCell id="5rMPybmwtRSb6ZqjiMPX-59" value="plugin" style="whiteSpace=wrap;html=1;fontSize=18;" parent="1" vertex="1">
          <mxGeometry x="-325" y="720" width="120" height="60" as="geometry" />
        </mxCell>
        <mxCell id="5rMPybmwtRSb6ZqjiMPX-60" value="что-то меняю или делаю" style="shape=callout;whiteSpace=wrap;html=1;perimeter=calloutPerimeter;fontSize=18;direction=west;" parent="1" vertex="1">
          <mxGeometry x="-350" y="780" width="120" height="80" as="geometry" />
        </mxCell>
        <mxCell id="5rMPybmwtRSb6ZqjiMPX-61" value="" style="curved=1;endArrow=classic;html=1;rounded=0;fontSize=18;exitX=-0.08;exitY=0.467;exitDx=0;exitDy=0;exitPerimeter=0;" parent="1" edge="1">
          <mxGeometry width="50" height="50" relative="1" as="geometry">
            <mxPoint x="-334.5" y="750.01" as="sourcePoint" />
            <mxPoint x="-535.5" y="750" as="targetPoint" />
            <Array as="points" />
          </mxGeometry>
        </mxCell>
        <mxCell id="5rMPybmwtRSb6ZqjiMPX-62" value="вернул измененное&amp;nbsp;" style="text;html=1;align=center;verticalAlign=middle;resizable=0;points=[];autosize=1;strokeColor=none;fillColor=none;fontSize=18;" parent="1" vertex="1">
          <mxGeometry x="-530" y="720" width="190" height="30" as="geometry" />
        </mxCell>
        <mxCell id="5rMPybmwtRSb6ZqjiMPX-63" value="" style="curved=1;endArrow=classic;html=1;rounded=0;fontSize=18;" parent="1" edge="1">
          <mxGeometry width="50" height="50" relative="1" as="geometry">
            <mxPoint x="-110" y="510" as="sourcePoint" />
            <mxPoint x="-100" y="610" as="targetPoint" />
            <Array as="points" />
          </mxGeometry>
        </mxCell>
        <mxCell id="5rMPybmwtRSb6ZqjiMPX-64" value="Пар-тр в jsonke" style="text;html=1;align=center;verticalAlign=middle;resizable=0;points=[];autosize=1;strokeColor=none;fillColor=none;fontSize=18;" parent="1" vertex="1">
          <mxGeometry x="-185" y="480" width="150" height="30" as="geometry" />
        </mxCell>
        <mxCell id="6_-GQNWFfY5IS_-YIbFo-7" value="admin" style="rounded=1;whiteSpace=wrap;html=1;fontSize=22;" vertex="1" parent="1">
          <mxGeometry x="830.2" y="530" width="100" height="50" as="geometry" />
        </mxCell>
        <mxCell id="6_-GQNWFfY5IS_-YIbFo-9" value="aws....." style="aspect=fixed;perimeter=ellipsePerimeter;html=1;align=center;shadow=0;dashed=0;spacingTop=3;image;image=img/lib/active_directory/internet_cloud.svg;fontSize=22;" vertex="1" parent="1">
          <mxGeometry x="573.02" y="668.5" width="176.98" height="111.5" as="geometry" />
        </mxCell>
        <mxCell id="6_-GQNWFfY5IS_-YIbFo-14" value="" style="shape=flexArrow;endArrow=classic;startArrow=classic;html=1;rounded=0;fontSize=22;entryX=0;entryY=1;entryDx=0;entryDy=0;exitX=0.75;exitY=0;exitDx=0;exitDy=0;" edge="1" parent="1" source="6_-GQNWFfY5IS_-YIbFo-9" target="6_-GQNWFfY5IS_-YIbFo-7">
          <mxGeometry width="100" height="100" relative="1" as="geometry">
            <mxPoint x="720" y="720" as="sourcePoint" />
            <mxPoint x="820" y="620" as="targetPoint" />
          </mxGeometry>
        </mxCell>
        <mxCell id="6_-GQNWFfY5IS_-YIbFo-15" value="java server" style="aspect=fixed;perimeter=ellipsePerimeter;html=1;align=center;shadow=0;dashed=0;spacingTop=3;image;image=img/lib/active_directory/generic_server.svg;fontSize=22;" vertex="1" parent="1">
          <mxGeometry x="1020" y="668.5" width="66.78" height="119.25" as="geometry" />
        </mxCell>
        <mxCell id="6_-GQNWFfY5IS_-YIbFo-16" value="" style="shape=flexArrow;endArrow=classic;startArrow=classic;html=1;rounded=0;fontSize=22;entryX=1;entryY=1;entryDx=0;entryDy=0;exitX=0.5;exitY=0;exitDx=0;exitDy=0;" edge="1" parent="1" source="6_-GQNWFfY5IS_-YIbFo-15" target="6_-GQNWFfY5IS_-YIbFo-7">
          <mxGeometry width="100" height="100" relative="1" as="geometry">
            <mxPoint x="710.8280784953281" y="684.305413803231" as="sourcePoint" />
            <mxPoint x="840.1999999999998" y="590" as="targetPoint" />
          </mxGeometry>
        </mxCell>
      </root>
    </mxGraphModel>
  </diagram>
</mxfile>
